<mxfile host="app.diagrams.net" agent="Mozilla/5.0 (Windows NT 10.0; Win64; x64) AppleWebKit/537.36 (KHTML, like Gecko) Chrome/140.0.0.0 Safari/537.36" version="28.2.3" pages="5">
  <diagram name="Page-1" id="WuqDBP2HpBR56diwF8Lw">
    <mxGraphModel dx="2264" dy="1466" grid="1" gridSize="10" guides="1" tooltips="1" connect="1" arrows="1" fold="1" page="1" pageScale="1" pageWidth="3300" pageHeight="2339" background="#FFFFFF" math="0" shadow="0">
      <root>
        <mxCell id="0" />
        <mxCell id="1" parent="0" />
        <mxCell id="title" value="Enterprise Data Model (EDM) - Sistem Edunex ITB (Conceptual View)" style="text;html=1;strokeColor=none;fillColor=none;align=center;verticalAlign=middle;whiteSpace=wrap;rounded=0;fontSize=24;fontStyle=1;" parent="1" vertex="1">
          <mxGeometry x="40" y="10" width="1720" height="40" as="geometry" />
        </mxCell>
        <mxCell id="bg-user" value="" style="rounded=0;whiteSpace=wrap;html=1;fillColor=#e1efff;strokeColor=#99ccff;dashed=0;" parent="1" vertex="1">
          <mxGeometry x="40" y="70" width="280" height="600" as="geometry" />
        </mxCell>
        <mxCell id="bg-course" value="" style="rounded=0;whiteSpace=wrap;html=1;fillColor=#e1efff;strokeColor=#99ccff;dashed=0;" parent="1" vertex="1">
          <mxGeometry x="340" y="70" width="280" height="600" as="geometry" />
        </mxCell>
        <mxCell id="bg-content" value="" style="rounded=0;whiteSpace=wrap;html=1;fillColor=#e1efff;strokeColor=#99ccff;dashed=0;" parent="1" vertex="1">
          <mxGeometry x="640" y="70" width="280" height="600" as="geometry" />
        </mxCell>
        <mxCell id="bg-assessment" value="" style="rounded=0;whiteSpace=wrap;html=1;fillColor=#e1efff;strokeColor=#99ccff;dashed=0;" parent="1" vertex="1">
          <mxGeometry x="940" y="70" width="280" height="600" as="geometry" />
        </mxCell>
        <mxCell id="bg-comm" value="" style="rounded=0;whiteSpace=wrap;html=1;fillColor=#e1efff;strokeColor=#99ccff;dashed=0;" parent="1" vertex="1">
          <mxGeometry x="1240" y="70" width="280" height="600" as="geometry" />
        </mxCell>
        <mxCell id="bg-research" value="" style="rounded=0;whiteSpace=wrap;html=1;fillColor=#e1efff;strokeColor=#99ccff;dashed=0;" parent="1" vertex="1">
          <mxGeometry x="1540" y="70" width="280" height="600" as="geometry" />
        </mxCell>
        <mxCell id="title-user" value="User Management" style="text;html=1;align=center;verticalAlign=middle;whiteSpace=wrap;rounded=0;fontSize=16;fontStyle=1;" parent="1" vertex="1">
          <mxGeometry x="40" y="80" width="280" height="30" as="geometry" />
        </mxCell>
        <mxCell id="title-course" value="Course Management" style="text;html=1;align=center;verticalAlign=middle;whiteSpace=wrap;rounded=0;fontSize=16;fontStyle=1;" parent="1" vertex="1">
          <mxGeometry x="340" y="80" width="280" height="30" as="geometry" />
        </mxCell>
        <mxCell id="title-content" value="Content Management" style="text;html=1;align=center;verticalAlign=middle;whiteSpace=wrap;rounded=0;fontSize=16;fontStyle=1;" parent="1" vertex="1">
          <mxGeometry x="640" y="80" width="280" height="30" as="geometry" />
        </mxCell>
        <mxCell id="title-assessment" value="Assessment Management" style="text;html=1;align=center;verticalAlign=middle;whiteSpace=wrap;rounded=0;fontSize=16;fontStyle=1;" parent="1" vertex="1">
          <mxGeometry x="940" y="80" width="280" height="30" as="geometry" />
        </mxCell>
        <mxCell id="title-comm" value="Communication" style="text;html=1;align=center;verticalAlign=middle;whiteSpace=wrap;rounded=0;fontSize=16;fontStyle=1;" parent="1" vertex="1">
          <mxGeometry x="1240" y="80" width="280" height="30" as="geometry" />
        </mxCell>
        <mxCell id="title-research" value="Research Management" style="text;html=1;align=center;verticalAlign=middle;whiteSpace=wrap;rounded=0;fontSize=16;fontStyle=1;" parent="1" vertex="1">
          <mxGeometry x="1540" y="80" width="280" height="30" as="geometry" />
        </mxCell>
        <mxCell id="user" value="User" style="rounded=0;whiteSpace=wrap;html=1;fillColor=#ffffff;strokeColor=#000000;strokeWidth=2;" parent="1" vertex="1">
          <mxGeometry x="100" y="150" width="160" height="60" as="geometry" />
        </mxCell>
        <mxCell id="role" value="Role" style="rounded=0;whiteSpace=wrap;html=1;fillColor=#ffffff;strokeColor=#000000;" parent="1" vertex="1">
          <mxGeometry x="100" y="260" width="160" height="60" as="geometry" />
        </mxCell>
        <mxCell id="enrollment" value="User Course Enrollment" style="rounded=0;whiteSpace=wrap;html=1;fillColor=#ffffff;strokeColor=#000000;" parent="1" vertex="1">
          <mxGeometry x="100" y="370" width="160" height="60" as="geometry" />
        </mxCell>
        <mxCell id="course" value="Course" style="rounded=0;whiteSpace=wrap;html=1;fillColor=#ffffff;strokeColor=#000000;strokeWidth=2;" parent="1" vertex="1">
          <mxGeometry x="400" y="260" width="160" height="60" as="geometry" />
        </mxCell>
        <mxCell id="module" value="Module" style="rounded=0;whiteSpace=wrap;html=1;fillColor=#ffffff;strokeColor=#000000;" parent="1" vertex="1">
          <mxGeometry x="400" y="370" width="160" height="60" as="geometry" />
        </mxCell>
        <mxCell id="submodule" value="Submodule" style="rounded=0;whiteSpace=wrap;html=1;fillColor=#ffffff;strokeColor=#000000;" parent="1" vertex="1">
          <mxGeometry x="400" y="480" width="160" height="60" as="geometry" />
        </mxCell>
        <mxCell id="content" value="Content" style="rounded=0;whiteSpace=wrap;html=1;fillColor=#ffffff;strokeColor=#000000;strokeWidth=2;" parent="1" vertex="1">
          <mxGeometry x="700" y="150" width="160" height="60" as="geometry" />
        </mxCell>
        <mxCell id="videoconf" value="Video Conference" style="rounded=0;whiteSpace=wrap;html=1;fillColor=#ffffff;strokeColor=#000000;" parent="1" vertex="1">
          <mxGeometry x="700" y="370" width="160" height="60" as="geometry" />
        </mxCell>
        <mxCell id="assignment" value="Assignment" style="rounded=0;whiteSpace=wrap;html=1;fillColor=#ffffff;strokeColor=#000000;strokeWidth=2;" parent="1" vertex="1">
          <mxGeometry x="1000" y="150" width="160" height="60" as="geometry" />
        </mxCell>
        <mxCell id="exam" value="Exam" style="rounded=0;whiteSpace=wrap;html=1;fillColor=#ffffff;strokeColor=#000000;strokeWidth=2;" parent="1" vertex="1">
          <mxGeometry x="1000" y="260" width="160" height="60" as="geometry" />
        </mxCell>
        <mxCell id="question" value="Question" style="rounded=0;whiteSpace=wrap;html=1;fillColor=#ffffff;strokeColor=#000000;" parent="1" vertex="1">
          <mxGeometry x="1000" y="370" width="160" height="60" as="geometry" />
        </mxCell>
        <mxCell id="grade" value="Grade" style="rounded=0;whiteSpace=wrap;html=1;fillColor=#ffffff;strokeColor=#000000;" parent="1" vertex="1">
          <mxGeometry x="1000" y="480" width="160" height="60" as="geometry" />
        </mxCell>
        <mxCell id="discussion" value="Discussion" style="rounded=0;whiteSpace=wrap;html=1;fillColor=#ffffff;strokeColor=#000000;strokeWidth=2;" parent="1" vertex="1">
          <mxGeometry x="1300" y="150" width="160" height="60" as="geometry" />
        </mxCell>
        <mxCell id="attendance" value="Attendance" style="rounded=0;whiteSpace=wrap;html=1;fillColor=#ffffff;strokeColor=#000000;" parent="1" vertex="1">
          <mxGeometry x="1300" y="260" width="160" height="60" as="geometry" />
        </mxCell>
        <mxCell id="workgroup" value="Workgroup" style="rounded=0;whiteSpace=wrap;html=1;fillColor=#ffffff;strokeColor=#000000;" parent="1" vertex="1">
          <mxGeometry x="1300" y="370" width="160" height="60" as="geometry" />
        </mxCell>
        <mxCell id="workspace" value="Workspace" style="rounded=0;whiteSpace=wrap;html=1;fillColor=#ffffff;strokeColor=#000000;strokeWidth=2;" parent="1" vertex="1">
          <mxGeometry x="1600" y="150" width="160" height="60" as="geometry" />
        </mxCell>
        <mxCell id="project" value="Project" style="rounded=0;whiteSpace=wrap;html=1;fillColor=#ffffff;strokeColor=#000000;" parent="1" vertex="1">
          <mxGeometry x="1600" y="260" width="160" height="60" as="geometry" />
        </mxCell>
        <mxCell id="rel-user-role" value="has" style="html=1;rounded=0;entryX=0.5;entryY=0;entryDx=0;entryDy=0;exitX=0.5;exitY=1;exitDx=0;exitDy=0;startArrow=ERoneToMany;endArrow=ERzeroToMany;" parent="1" source="user" target="role" edge="1">
          <mxGeometry width="50" height="50" relative="1" as="geometry">
            <mxPoint x="180" y="220" as="sourcePoint" />
            <mxPoint x="180" y="250" as="targetPoint" />
          </mxGeometry>
        </mxCell>
        <mxCell id="rel-user-enroll" value="enrolls in" style="html=1;rounded=0;exitX=0.5;exitY=1;exitDx=0;exitDy=0;entryX=0.5;entryY=0;entryDx=0;entryDy=0;startArrow=ERzeroToMany;endArrow=ERmandOne;" parent="1" source="role" target="enrollment" edge="1">
          <mxGeometry width="50" height="50" relative="1" as="geometry">
            <mxPoint x="180" y="330" as="sourcePoint" />
            <mxPoint x="180" y="360" as="targetPoint" />
          </mxGeometry>
        </mxCell>
        <mxCell id="rel-course-module" value="contains" style="html=1;rounded=0;exitX=0.5;exitY=1;exitDx=0;exitDy=0;entryX=0.5;entryY=0;entryDx=0;entryDy=0;startArrow=ERoneToMany;endArrow=ERmandOne;" parent="1" source="course" target="module" edge="1">
          <mxGeometry width="50" height="50" relative="1" as="geometry">
            <mxPoint x="480" y="330" as="sourcePoint" />
            <mxPoint x="480" y="360" as="targetPoint" />
          </mxGeometry>
        </mxCell>
        <mxCell id="rel-module-submodule" value="contains" style="html=1;rounded=0;exitX=0.5;exitY=1;exitDx=0;exitDy=0;entryX=0.5;entryY=0;entryDx=0;entryDy=0;startArrow=ERzeroToMany;endArrow=ERmandOne;" parent="1" source="module" target="submodule" edge="1">
          <mxGeometry width="50" height="50" relative="1" as="geometry">
            <mxPoint x="480" y="440" as="sourcePoint" />
            <mxPoint x="480" y="470" as="targetPoint" />
          </mxGeometry>
        </mxCell>
        <mxCell id="rel-enroll-course" value="links to" style="html=1;rounded=0;exitX=1;exitY=0.5;exitDx=0;exitDy=0;entryX=0;entryY=0.5;entryDx=0;entryDy=0;startArrow=ERmandOne;endArrow=ERzeroToMany;" parent="1" source="enrollment" target="course" edge="1">
          <mxGeometry width="50" height="50" relative="1" as="geometry">
            <mxPoint x="270" y="320" as="sourcePoint" />
            <mxPoint x="390" y="320" as="targetPoint" />
            <Array as="points">
              <mxPoint x="300" y="400" />
              <mxPoint x="300" y="290" />
            </Array>
          </mxGeometry>
        </mxCell>
        <mxCell id="rel-content-course" value="located in" style="html=1;rounded=0;exitX=0;exitY=0.5;exitDx=0;exitDy=0;entryX=1;entryY=0.5;entryDx=0;entryDy=0;startArrow=ERmandOne;endArrow=ERzeroToMany;" parent="1" source="content" target="course" edge="1">
          <mxGeometry width="50" height="50" relative="1" as="geometry">
            <mxPoint x="690" y="210" as="sourcePoint" />
            <mxPoint x="570" y="210" as="targetPoint" />
            <Array as="points">
              <mxPoint x="600" y="180" />
              <mxPoint x="600" y="290" />
            </Array>
          </mxGeometry>
        </mxCell>
        <mxCell id="rel-videoconf-course" value="scheduled for" style="html=1;rounded=0;exitX=0;exitY=0.5;exitDx=0;exitDy=0;entryX=1;entryY=0.75;entryDx=0;entryDy=0;startArrow=ERmandOne;endArrow=ERzeroToMany;" parent="1" source="videoconf" target="course" edge="1">
          <mxGeometry width="50" height="50" relative="1" as="geometry">
            <mxPoint x="690" y="380" as="sourcePoint" />
            <mxPoint x="570" y="305" as="targetPoint" />
            <Array as="points">
              <mxPoint x="600" y="400" />
              <mxPoint x="600" y="305" />
            </Array>
          </mxGeometry>
        </mxCell>
        <mxCell id="rel-assignment-course" value="belongs to" style="edgeStyle=orthogonalEdgeStyle;html=1;rounded=0;exitX=0;exitY=0.5;exitDx=0;exitDy=0;entryX=1;entryY=0.25;entryDx=0;entryDy=0;startArrow=ERmandOne;endArrow=ERzeroToMany;" parent="1" source="assignment" target="course" edge="1">
          <mxGeometry width="50" height="50" relative="1" as="geometry">
            <mxPoint x="990" y="210" as="sourcePoint" />
            <mxPoint x="570" y="275" as="targetPoint" />
            <Array as="points">
              <mxPoint x="970" y="180" />
              <mxPoint x="970" y="275" />
            </Array>
          </mxGeometry>
        </mxCell>
        <mxCell id="rel-exam-question" value="uses" style="html=1;rounded=0;exitX=0.5;exitY=1;exitDx=0;exitDy=0;entryX=0.5;entryY=0;entryDx=0;entryDy=0;startArrow=ERoneToMany;endArrow=ERzeroToMany;" parent="1" source="exam" target="question" edge="1">
          <mxGeometry width="50" height="50" relative="1" as="geometry">
            <mxPoint x="1080" y="330" as="sourcePoint" />
            <mxPoint x="1080" y="360" as="targetPoint" />
          </mxGeometry>
        </mxCell>
        <mxCell id="rel-grade-assignment" value="grades" style="html=1;rounded=0;entryX=0.5;entryY=1;entryDx=0;entryDy=0;exitX=0.5;exitY=0;exitDx=0;exitDy=0;startArrow=ERmandOne;endArrow=ERzeroToMany;" parent="1" source="grade" target="assignment" edge="1">
          <mxGeometry width="50" height="50" relative="1" as="geometry">
            <mxPoint x="1080" y="470" as="sourcePoint" />
            <mxPoint x="1080" y="220" as="targetPoint" />
            <Array as="points">
              <mxPoint x="1120" y="450" />
              <mxPoint x="1120" y="240" />
            </Array>
          </mxGeometry>
        </mxCell>
        <mxCell id="rel-grade-user" value="assigned to" style="edgeStyle=orthogonalEdgeStyle;html=1;rounded=0;exitX=0.5;exitY=1;exitDx=0;exitDy=0;startArrow=ERmandOne;endArrow=ERzeroToMany;" parent="1" source="grade" target="user" edge="1">
          <mxGeometry width="50" height="50" relative="1" as="geometry">
            <mxPoint x="990" y="510" as="sourcePoint" />
            <mxPoint x="270" y="180" as="targetPoint" />
            <Array as="points">
              <mxPoint x="1080" y="560" />
              <mxPoint x="80" y="560" />
              <mxPoint x="80" y="180" />
            </Array>
          </mxGeometry>
        </mxCell>
        <mxCell id="rel-discussion-course" value="part of" style="edgeStyle=orthogonalEdgeStyle;html=1;rounded=0;exitX=0;exitY=0.5;exitDx=0;exitDy=0;startArrow=ERmandOne;endArrow=ERzeroToMany;" parent="1" source="discussion" target="course" edge="1">
          <mxGeometry width="50" height="50" relative="1" as="geometry">
            <mxPoint x="1290" y="240" as="sourcePoint" />
            <mxPoint x="570" y="290" as="targetPoint" />
            <Array as="points">
              <mxPoint x="1280" y="180" />
              <mxPoint x="1280" y="240" />
              <mxPoint x="670" y="240" />
              <mxPoint x="670" y="290" />
            </Array>
          </mxGeometry>
        </mxCell>
        <mxCell id="rel-attendance-user" value="records" style="edgeStyle=orthogonalEdgeStyle;html=1;rounded=0;exitX=0;exitY=0.5;exitDx=0;exitDy=0;startArrow=ERmandOne;endArrow=ERzeroToMany;" parent="1" source="attendance" target="user" edge="1">
          <mxGeometry width="50" height="50" relative="1" as="geometry">
            <mxPoint x="1290" y="320" as="sourcePoint" />
            <mxPoint x="270" y="210" as="targetPoint" />
            <Array as="points">
              <mxPoint x="1300" y="250" />
              <mxPoint x="360" y="250" />
              <mxPoint x="360" y="180" />
            </Array>
          </mxGeometry>
        </mxCell>
        <mxCell id="rel-project-user" value="involves" style="html=1;rounded=0;exitX=0;exitY=0.5;exitDx=0;exitDy=0;startArrow=ERoneToMany;endArrow=ERzeroToMany;edgeStyle=orthogonalEdgeStyle;" parent="1" source="project" target="user" edge="1">
          <mxGeometry width="50" height="50" relative="1" as="geometry">
            <mxPoint x="1590" y="210" as="sourcePoint" />
            <mxPoint x="270" y="180" as="targetPoint" />
            <Array as="points">
              <mxPoint x="1560" y="290" />
              <mxPoint x="1560" y="130" />
              <mxPoint x="180" y="130" />
            </Array>
          </mxGeometry>
        </mxCell>
        <mxCell id="rel-workspace-project" value="contains" style="html=1;rounded=0;exitX=0.5;exitY=1;exitDx=0;exitDy=0;entryX=0.5;entryY=0;entryDx=0;entryDy=0;startArrow=ERzeroToMany;endArrow=ERmandOne;" parent="1" source="workspace" target="project" edge="1">
          <mxGeometry width="50" height="50" relative="1" as="geometry">
            <mxPoint x="1680" y="220" as="sourcePoint" />
            <mxPoint x="1680" y="250" as="targetPoint" />
          </mxGeometry>
        </mxCell>
      </root>
    </mxGraphModel>
  </diagram>
  <diagram id="_4zCYtvDD9hKZ5ogy5T1" name="Page-2">
    <mxGraphModel dx="1509" dy="977" grid="1" gridSize="10" guides="1" tooltips="1" connect="1" arrows="1" fold="1" page="1" pageScale="1" pageWidth="1200" pageHeight="850" math="0" shadow="0">
      <root>
        <mxCell id="0" />
        <mxCell id="1" parent="0" />
        <mxCell id="AB12cDEfG-19" value="Data Kelas&lt;br&gt;Mahasiswa&lt;br&gt;Dosen" style="edgeStyle=orthogonalEdgeStyle;rounded=0;orthogonalLoop=1;jettySize=auto;html=1;exitX=0.5;exitY=0;exitDx=0;exitDy=0;entryX=1;entryY=0.5;entryDx=0;entryDy=0;" parent="1" source="AB12cDEfG-9" target="AB12cDEfG-7" edge="1">
          <mxGeometry relative="1" as="geometry">
            <Array as="points">
              <mxPoint x="1050" y="210" />
              <mxPoint x="940" y="210" />
              <mxPoint x="940" y="330" />
              <mxPoint x="770" y="330" />
              <mxPoint x="770" y="470" />
            </Array>
          </mxGeometry>
        </mxCell>
        <mxCell id="CzKTgwF2ua7WZUuUwrVN-10" style="edgeStyle=orthogonalEdgeStyle;rounded=0;orthogonalLoop=1;jettySize=auto;html=1;exitX=1;exitY=0.5;exitDx=0;exitDy=0;entryX=0.5;entryY=1;entryDx=0;entryDy=0;" edge="1" parent="1" source="AB12cDEfG-4" target="AB12cDEfG-6">
          <mxGeometry relative="1" as="geometry">
            <Array as="points">
              <mxPoint x="200" y="580" />
              <mxPoint x="730" y="580" />
            </Array>
          </mxGeometry>
        </mxCell>
        <mxCell id="CzKTgwF2ua7WZUuUwrVN-11" value="Mengumpulkan Tugas&lt;br&gt;&amp;amp; Mengerjakan Ujian" style="edgeLabel;html=1;align=center;verticalAlign=middle;resizable=0;points=[];" vertex="1" connectable="0" parent="CzKTgwF2ua7WZUuUwrVN-10">
          <mxGeometry x="0.7094" y="-4" relative="1" as="geometry">
            <mxPoint y="-1" as="offset" />
          </mxGeometry>
        </mxCell>
        <mxCell id="AB12cDEfG-3" value="Dosen" style="whiteSpace=wrap;html=1;fillColor=#dae8fc;strokeColor=#6c8ebf;" parent="1" vertex="1">
          <mxGeometry x="40" y="240" width="160" height="70" as="geometry" />
        </mxCell>
        <mxCell id="CzKTgwF2ua7WZUuUwrVN-8" style="edgeStyle=orthogonalEdgeStyle;rounded=0;orthogonalLoop=1;jettySize=auto;html=1;exitX=0.5;exitY=1;exitDx=0;exitDy=0;" edge="1" parent="1" source="AB12cDEfG-4">
          <mxGeometry relative="1" as="geometry">
            <mxPoint x="400" y="470" as="targetPoint" />
          </mxGeometry>
        </mxCell>
        <mxCell id="CzKTgwF2ua7WZUuUwrVN-9" value="Mendaftar ke Kelas&lt;br&gt;(Enroll)" style="edgeLabel;html=1;align=center;verticalAlign=middle;resizable=0;points=[];" vertex="1" connectable="0" parent="CzKTgwF2ua7WZUuUwrVN-8">
          <mxGeometry x="-0.4168" relative="1" as="geometry">
            <mxPoint as="offset" />
          </mxGeometry>
        </mxCell>
        <mxCell id="AB12cDEfG-4" value="Mahasiswa" style="whiteSpace=wrap;html=1;fillColor=#dae8fc;strokeColor=#6c8ebf;" parent="1" vertex="1">
          <mxGeometry x="40" y="440" width="160" height="70" as="geometry" />
        </mxCell>
        <mxCell id="AB12cDEfG-5" value="Manajemen Mata Kuliah &amp; Konten" style="whiteSpace=wrap;html=1;fillColor=#dae8fc;strokeColor=#6c8ebf;" parent="1" vertex="1">
          <mxGeometry x="400" y="120" width="180" height="80" as="geometry" />
        </mxCell>
        <mxCell id="AB12cDEfG-6" value="Manajemen Penilaian &amp; Tugas" style="whiteSpace=wrap;html=1;fillColor=#dae8fc;strokeColor=#6c8ebf;" parent="1" vertex="1">
          <mxGeometry x="640" y="230" width="180" height="80" as="geometry" />
        </mxCell>
        <mxCell id="AB12cDEfG-7" value="Manajemen Pengguna &amp; Kelas" style="whiteSpace=wrap;html=1;fillColor=#dae8fc;strokeColor=#6c8ebf;" parent="1" vertex="1">
          <mxGeometry x="400" y="430" width="180" height="80" as="geometry" />
        </mxCell>
        <mxCell id="AB12cDEfG-8" value="Manajemen Interaksi &amp; Kolaborasi" style="whiteSpace=wrap;html=1;fillColor=#dae8fc;strokeColor=#6c8ebf;" parent="1" vertex="1">
          <mxGeometry x="400" y="630" width="180" height="80" as="geometry" />
        </mxCell>
        <mxCell id="AB12cDEfG-9" value="Sistem Akademik (SIX)" style="whiteSpace=wrap;html=1;fillColor=#dae8fc;strokeColor=#6c8ebf;" parent="1" vertex="1">
          <mxGeometry x="960" y="235" width="180" height="70" as="geometry" />
        </mxCell>
        <mxCell id="AB12cDEfG-10" value="Sistem HRIS" style="whiteSpace=wrap;html=1;fillColor=#dae8fc;strokeColor=#6c8ebf;" parent="1" vertex="1">
          <mxGeometry x="960" y="435" width="180" height="70" as="geometry" />
        </mxCell>
        <mxCell id="AB12cDEfG-11" value="Mengelola Materi&lt;br&gt;&amp;amp; Struktur Course" style="edgeStyle=orthogonalEdgeStyle;rounded=0;orthogonalLoop=1;jettySize=auto;html=1;exitX=1;exitY=0.5;exitDx=0;exitDy=0;entryX=0;entryY=0.5;entryDx=0;entryDy=0;" parent="1" source="AB12cDEfG-3" target="AB12cDEfG-5" edge="1">
          <mxGeometry relative="1" as="geometry" />
        </mxCell>
        <mxCell id="AB12cDEfG-12" value="Membuat &amp;amp; Menilai&lt;br&gt;Tugas/Ujian" style="edgeStyle=orthogonalEdgeStyle;rounded=0;orthogonalLoop=1;jettySize=auto;html=1;exitX=1;exitY=0.5;exitDx=0;exitDy=0;entryX=0;entryY=0.5;entryDx=0;entryDy=0;" parent="1" source="AB12cDEfG-3" target="AB12cDEfG-6" edge="1">
          <mxGeometry relative="1" as="geometry" />
        </mxCell>
        <mxCell id="AB12cDEfG-13" value="Mengelola&lt;br&gt;Peserta Kelas" style="edgeStyle=orthogonalEdgeStyle;rounded=0;orthogonalLoop=1;jettySize=auto;html=1;exitX=1;exitY=0.5;exitDx=0;exitDy=0;entryX=0;entryY=0.5;entryDx=0;entryDy=0;" parent="1" source="AB12cDEfG-3" target="AB12cDEfG-7" edge="1">
          <mxGeometry relative="1" as="geometry" />
        </mxCell>
        <mxCell id="AB12cDEfG-14" value="" style="edgeStyle=orthogonalEdgeStyle;rounded=0;orthogonalLoop=1;jettySize=auto;html=1;exitX=0.5;exitY=1;exitDx=0;exitDy=0;entryX=0.5;entryY=0;entryDx=0;entryDy=0;" parent="1" source="AB12cDEfG-3" target="AB12cDEfG-8" edge="1">
          <mxGeometry relative="1" as="geometry">
            <Array as="points">
              <mxPoint x="120" y="330" />
              <mxPoint x="360" y="330" />
              <mxPoint x="360" y="600" />
              <mxPoint x="490" y="600" />
            </Array>
          </mxGeometry>
        </mxCell>
        <mxCell id="CzKTgwF2ua7WZUuUwrVN-7" value="Memulai Diskusi&lt;br&gt;&amp;amp; Mencatat Kehadiran" style="edgeLabel;html=1;align=center;verticalAlign=middle;resizable=0;points=[];" vertex="1" connectable="0" parent="AB12cDEfG-14">
          <mxGeometry x="0.4206" y="-1" relative="1" as="geometry">
            <mxPoint as="offset" />
          </mxGeometry>
        </mxCell>
        <mxCell id="AB12cDEfG-15" value="Mengakses Materi&lt;br&gt;Pembelajaran" style="edgeStyle=orthogonalEdgeStyle;rounded=0;orthogonalLoop=1;jettySize=auto;html=1;exitX=1;exitY=0.5;exitDx=0;exitDy=0;entryX=0.5;entryY=0;entryDx=0;entryDy=0;" parent="1" source="AB12cDEfG-4" target="AB12cDEfG-5" edge="1">
          <mxGeometry relative="1" as="geometry">
            <Array as="points">
              <mxPoint x="250" y="475" />
              <mxPoint x="250" y="80" />
              <mxPoint x="490" y="80" />
            </Array>
          </mxGeometry>
        </mxCell>
        <mxCell id="AB12cDEfG-18" value="" style="edgeStyle=orthogonalEdgeStyle;rounded=0;orthogonalLoop=1;jettySize=auto;html=1;exitX=0.5;exitY=0;exitDx=0;exitDy=0;entryX=0;entryY=0.5;entryDx=0;entryDy=0;" parent="1" source="AB12cDEfG-4" target="AB12cDEfG-8" edge="1">
          <mxGeometry relative="1" as="geometry">
            <Array as="points">
              <mxPoint x="120" y="420" />
              <mxPoint x="280" y="420" />
              <mxPoint x="280" y="670" />
            </Array>
          </mxGeometry>
        </mxCell>
        <mxCell id="CzKTgwF2ua7WZUuUwrVN-14" value="Berpartisipasi&lt;br&gt;dalam Diskusi" style="edgeLabel;html=1;align=center;verticalAlign=middle;resizable=0;points=[];" vertex="1" connectable="0" parent="AB12cDEfG-18">
          <mxGeometry x="0.3078" y="1" relative="1" as="geometry">
            <mxPoint as="offset" />
          </mxGeometry>
        </mxCell>
        <mxCell id="AB12cDEfG-21" value="" style="edgeStyle=orthogonalEdgeStyle;rounded=0;orthogonalLoop=1;jettySize=auto;html=1;exitX=0.5;exitY=0;exitDx=0;exitDy=0;entryX=0.5;entryY=1;entryDx=0;entryDy=0;" parent="1" source="AB12cDEfG-7" target="AB12cDEfG-9" edge="1">
          <mxGeometry relative="1" as="geometry">
            <Array as="points">
              <mxPoint x="490" y="410" />
              <mxPoint x="920" y="410" />
              <mxPoint x="920" y="350" />
              <mxPoint x="1050" y="350" />
            </Array>
          </mxGeometry>
        </mxCell>
        <mxCell id="CzKTgwF2ua7WZUuUwrVN-3" value="Sinkronisasi Peserta&lt;br&gt;&amp;amp; Kehadiran" style="edgeLabel;html=1;align=center;verticalAlign=middle;resizable=0;points=[];" vertex="1" connectable="0" parent="AB12cDEfG-21">
          <mxGeometry x="0.3839" y="2" relative="1" as="geometry">
            <mxPoint as="offset" />
          </mxGeometry>
        </mxCell>
        <mxCell id="AB12cDEfG-22" value="Data Nilai Akhir&lt;br&gt;(Opsional)" style="edgeStyle=orthogonalEdgeStyle;rounded=0;orthogonalLoop=1;jettySize=auto;html=1;exitX=1;exitY=0.5;exitDx=0;exitDy=0;entryX=0;entryY=0.5;entryDx=0;entryDy=0;" parent="1" source="AB12cDEfG-6" target="AB12cDEfG-9" edge="1">
          <mxGeometry relative="1" as="geometry" />
        </mxCell>
        <mxCell id="AB12cDEfG-23" value="" style="edgeStyle=orthogonalEdgeStyle;rounded=0;orthogonalLoop=1;jettySize=auto;html=1;exitX=1;exitY=0.5;exitDx=0;exitDy=0;entryX=0;entryY=0.5;entryDx=0;entryDy=0;" parent="1" source="AB12cDEfG-5" target="AB12cDEfG-10" edge="1">
          <mxGeometry relative="1" as="geometry">
            <Array as="points">
              <mxPoint x="860" y="160" />
              <mxPoint x="860" y="470" />
            </Array>
          </mxGeometry>
        </mxCell>
        <mxCell id="CzKTgwF2ua7WZUuUwrVN-13" value="Data Jumlah&lt;br&gt;Kelas Dosen" style="edgeLabel;html=1;align=center;verticalAlign=middle;resizable=0;points=[];" vertex="1" connectable="0" parent="AB12cDEfG-23">
          <mxGeometry x="0.6142" y="-2" relative="1" as="geometry">
            <mxPoint as="offset" />
          </mxGeometry>
        </mxCell>
        <mxCell id="CzKTgwF2ua7WZUuUwrVN-4" style="edgeStyle=orthogonalEdgeStyle;rounded=0;orthogonalLoop=1;jettySize=auto;html=1;exitX=0.5;exitY=1;exitDx=0;exitDy=0;entryX=0.444;entryY=1;entryDx=0;entryDy=0;entryPerimeter=0;" edge="1" parent="1" source="AB12cDEfG-10" target="AB12cDEfG-7">
          <mxGeometry relative="1" as="geometry" />
        </mxCell>
        <mxCell id="CzKTgwF2ua7WZUuUwrVN-5" value="Data Dosen" style="edgeLabel;html=1;align=center;verticalAlign=middle;resizable=0;points=[];" vertex="1" connectable="0" parent="CzKTgwF2ua7WZUuUwrVN-4">
          <mxGeometry x="-0.0169" relative="1" as="geometry">
            <mxPoint as="offset" />
          </mxGeometry>
        </mxCell>
      </root>
    </mxGraphModel>
  </diagram>
  <diagram id="Hze8fHgsoGqsfAM9vZj_" name="Page-3">
    <mxGraphModel dx="2516" dy="1629" grid="1" gridSize="10" guides="1" tooltips="1" connect="1" arrows="1" fold="1" page="1" pageScale="1" pageWidth="2336" pageHeight="1654" math="0" shadow="0">
      <root>
        <mxCell id="0" />
        <mxCell id="1" parent="0" />
        <mxCell id="table-border" value="" style="shape=table;startSize=0;container=1;collapsible=0;childLayout=tableLayout;strokeColor=#a0a0a0;resizeHeight=1;" parent="1" vertex="1">
          <mxGeometry x="40" y="40" width="2100" height="780" as="geometry" />
        </mxCell>
        <mxCell id="header-0" value="Perspektif" style="text;strokeColor=none;fillColor=#dae8fc;html=1;whiteSpace=wrap;verticalAlign=middle;align=center;fontStyle=1" parent="1" vertex="1">
          <mxGeometry x="40" y="40" width="180" height="60" as="geometry" />
        </mxCell>
        <mxCell id="header-1" value="What (Data)" style="text;strokeColor=none;fillColor=#dae8fc;html=1;whiteSpace=wrap;verticalAlign=middle;align=center;fontStyle=1" parent="1" vertex="1">
          <mxGeometry x="220" y="40" width="320" height="60" as="geometry" />
        </mxCell>
        <mxCell id="header-2" value="How (Function/Process)" style="text;strokeColor=none;fillColor=#dae8fc;html=1;whiteSpace=wrap;verticalAlign=middle;align=center;fontStyle=1" parent="1" vertex="1">
          <mxGeometry x="540" y="40" width="320" height="60" as="geometry" />
        </mxCell>
        <mxCell id="header-3" value="Where (Network/Location)" style="text;strokeColor=none;fillColor=#dae8fc;html=1;whiteSpace=wrap;verticalAlign=middle;align=center;fontStyle=1" parent="1" vertex="1">
          <mxGeometry x="860" y="40" width="320" height="60" as="geometry" />
        </mxCell>
        <mxCell id="header-4" value="Who (People/Roles)" style="text;strokeColor=none;fillColor=#dae8fc;html=1;whiteSpace=wrap;verticalAlign=middle;align=center;fontStyle=1" parent="1" vertex="1">
          <mxGeometry x="1180" y="40" width="320" height="60" as="geometry" />
        </mxCell>
        <mxCell id="header-5" value="When (Time/Event)" style="text;strokeColor=none;fillColor=#dae8fc;html=1;whiteSpace=wrap;verticalAlign=middle;align=center;fontStyle=1" parent="1" vertex="1">
          <mxGeometry x="1500" y="40" width="320" height="60" as="geometry" />
        </mxCell>
        <mxCell id="header-6" value="Why (Motivation/Goals)" style="text;strokeColor=none;fillColor=#dae8fc;html=1;whiteSpace=wrap;verticalAlign=middle;align=center;fontStyle=1" parent="1" vertex="1">
          <mxGeometry x="1820" y="40" width="320" height="60" as="geometry" />
        </mxCell>
        <mxCell id="row-header-1" value="&lt;b&gt;Planner&lt;/b&gt;&lt;br&gt;(Cakupan Kontekstual)" style="text;strokeColor=none;fillColor=#e1d5e7;html=1;whiteSpace=wrap;verticalAlign=middle;align=center;fontStyle=0" parent="1" vertex="1">
          <mxGeometry x="40" y="100" width="180" height="120" as="geometry" />
        </mxCell>
        <mxCell id="cell-1-1" value="Daftar inventaris data utama seperti: &lt;b&gt;Data Akademik, Data Pengguna, Data Interaksi Pembelajaran&lt;/b&gt;." style="text;strokeColor=none;fillColor=none;html=1;whiteSpace=wrap;verticalAlign=middle;align=left;spacingLeft=10;" parent="1" vertex="1">
          <mxGeometry x="220" y="100" width="320" height="120" as="geometry" />
        </mxCell>
        <mxCell id="cell-1-2" value="Daftar proses bisnis utama seperti: &lt;b&gt;Pembelajaran Digital, Administrasi Akademik, Penilaian Mahasiswa&lt;/b&gt;." style="text;strokeColor=none;fillColor=none;html=1;whiteSpace=wrap;verticalAlign=middle;align=left;spacingLeft=10;" parent="1" vertex="1">
          <mxGeometry x="540" y="100" width="320" height="120" as="geometry" />
        </mxCell>
        <mxCell id="cell-1-3" value="Daftar lokasi operasional: &lt;b&gt;Lingkungan ITB, Platform Online/Internet&lt;/b&gt;." style="text;strokeColor=none;fillColor=none;html=1;whiteSpace=wrap;verticalAlign=middle;align=left;spacingLeft=10;" parent="1" vertex="1">
          <mxGeometry x="860" y="100" width="320" height="120" as="geometry" />
        </mxCell>
        <mxCell id="cell-1-4" value="Daftar unit organisasi utama: &lt;b&gt;Staf Akademik, Mahasiswa, Administrator Sistem&lt;/b&gt;." style="text;strokeColor=none;fillColor=none;html=1;whiteSpace=wrap;verticalAlign=middle;align=left;spacingLeft=10;" parent="1" vertex="1">
          <mxGeometry x="1180" y="100" width="320" height="120" as="geometry" />
        </mxCell>
        <mxCell id="cell-1-5" value="Daftar siklus bisnis utama: &lt;b&gt;Siklus Semester, Siklus Evaluasi Belajar&lt;/b&gt;." style="text;strokeColor=none;fillColor=none;html=1;whiteSpace=wrap;verticalAlign=middle;align=left;spacingLeft=10;" parent="1" vertex="1">
          <mxGeometry x="1500" y="100" width="320" height="120" as="geometry" />
        </mxCell>
        <mxCell id="cell-1-6" value="Daftar tujuan utama bisnis: &lt;b&gt;Meningkatkan Kualitas Pendidikan, Digitalisasi Proses Belajar&lt;/b&gt;." style="text;strokeColor=none;fillColor=none;html=1;whiteSpace=wrap;verticalAlign=middle;align=left;spacingLeft=10;" parent="1" vertex="1">
          <mxGeometry x="1820" y="100" width="320" height="120" as="geometry" />
        </mxCell>
        <mxCell id="row-header-2" value="&lt;b&gt;Owner&lt;/b&gt;&lt;br&gt;(Model Bisnis Konseptual)" style="text;strokeColor=none;fillColor=#e1d5e7;html=1;whiteSpace=wrap;verticalAlign=middle;align=center;" parent="1" vertex="1">
          <mxGeometry x="40" y="220" width="180" height="120" as="geometry" />
        </mxCell>
        <mxCell id="cell-2-1" value="&lt;b&gt;Model Data Konseptual&lt;/b&gt; yang mendefinisikan entitas bisnis seperti &lt;i&gt;User, Course, Assignment, Grade&lt;/i&gt;, dan hubungan antar entitas tersebut." style="text;strokeColor=none;fillColor=#f5f5f5;html=1;whiteSpace=wrap;verticalAlign=middle;align=left;spacingLeft=10;" parent="1" vertex="1">
          <mxGeometry x="220" y="220" width="320" height="120" as="geometry" />
        </mxCell>
        <mxCell id="cell-2-2" value="&lt;b&gt;Model Proses Bisnis&lt;/b&gt; yang menggambarkan alur kerja, misalnya Dosen mengunggah materi, lalu Mahasiswa mengakses materi tersebut." style="text;strokeColor=none;fillColor=#f5f5f5;html=1;whiteSpace=wrap;verticalAlign=middle;align=left;spacingLeft=10;" parent="1" vertex="1">
          <mxGeometry x="540" y="220" width="320" height="120" as="geometry" />
        </mxCell>
        <mxCell id="cell-2-3" value="&lt;b&gt;Model Logistik Bisnis&lt;/b&gt; yang memetakan lokasi sistem utama seperti &lt;i&gt;Sistem Akademik Terpusat (SIX)&lt;/i&gt; dan &lt;i&gt;Sistem HR&lt;/i&gt;." style="text;strokeColor=none;fillColor=#f5f5f5;html=1;whiteSpace=wrap;verticalAlign=middle;align=left;spacingLeft=10;" parent="1" vertex="1">
          <mxGeometry x="860" y="220" width="320" height="120" as="geometry" />
        </mxCell>
        <mxCell id="cell-2-4" value="&lt;b&gt;Model Alur Kerja&lt;/b&gt; yang mendefinisikan peran dan tanggung jawab seperti &lt;i&gt;Dosen (Pengajar), Mahasiswa (Peserta), Admin (Pengelola)&lt;/i&gt;." style="text;strokeColor=none;fillColor=#f5f5f5;html=1;whiteSpace=wrap;verticalAlign=middle;align=left;spacingLeft=10;" parent="1" vertex="1">
          <mxGeometry x="1180" y="220" width="320" height="120" as="geometry" />
        </mxCell>
        <mxCell id="cell-2-5" value="&lt;b&gt;Jadwal Induk&lt;/b&gt; yang mencakup &lt;i&gt;Jadwal Perkuliahan per Semester, Deadline Pengumpulan Tugas, Periode Ujian Tengah &amp;amp; Akhir Semester&lt;/i&gt;." style="text;strokeColor=none;fillColor=#f5f5f5;html=1;whiteSpace=wrap;verticalAlign=middle;align=left;spacingLeft=10;" parent="1" vertex="1">
          <mxGeometry x="1500" y="220" width="320" height="120" as="geometry" />
        </mxCell>
        <mxCell id="cell-2-6" value="&lt;b&gt;Rencana Bisnis&lt;/b&gt; dengan sasaran seperti &amp;quot;Memfasilitasi Pembelajaran Jarak Jauh (PJJ) yang efektif&amp;quot; dan strategi &amp;quot;Mengintegrasikan LMS dengan sistem akademik&amp;quot;." style="text;strokeColor=none;fillColor=#f5f5f5;html=1;whiteSpace=wrap;verticalAlign=middle;align=left;spacingLeft=10;" parent="1" vertex="1">
          <mxGeometry x="1820" y="220" width="320" height="120" as="geometry" />
        </mxCell>
        <mxCell id="row-header-3" value="&lt;b&gt;Designer&lt;/b&gt;&lt;br&gt;(Model Sistem Logikal)" style="text;strokeColor=none;fillColor=#e1d5e7;html=1;whiteSpace=wrap;verticalAlign=middle;align=center;" parent="1" vertex="1">
          <mxGeometry x="40" y="340" width="180" height="120" as="geometry" />
        </mxCell>
        <mxCell id="cell-3-1" value="&lt;b&gt;Model Data Logikal (ERD)&lt;/b&gt; yang merinci atribut dan relasi antar tabel, contohnya &lt;i&gt;tbl_User (UserID, Name, RoleID)&lt;/i&gt; memiliki relasi dengan &lt;i&gt;tbl_Enrollment&lt;/i&gt;." style="text;strokeColor=none;fillColor=none;html=1;whiteSpace=wrap;verticalAlign=middle;align=left;spacingLeft=10;" parent="1" vertex="1">
          <mxGeometry x="220" y="340" width="320" height="120" as="geometry" />
        </mxCell>
        <mxCell id="cell-3-2" value="&lt;b&gt;Arsitektur Aplikasi&lt;/b&gt; yang membagi sistem menjadi modul-modul fungsional seperti &lt;i&gt;Modul Konten, Modul Ujian, Modul Forum, Modul Sinkronisasi Data&lt;/i&gt;." style="text;strokeColor=none;fillColor=none;html=1;whiteSpace=wrap;verticalAlign=middle;align=left;spacingLeft=10;" parent="1" vertex="1">
          <mxGeometry x="540" y="340" width="320" height="120" as="geometry" />
        </mxCell>
        <mxCell id="cell-3-3" value="&lt;b&gt;Arsitektur Sistem Terdistribusi&lt;/b&gt; yang mendefinisikan arsitektur berbasis web (&lt;i&gt;Client-Server&lt;/i&gt;) dan &lt;i&gt;API Gateway&lt;/i&gt; untuk integrasi dengan SIX &amp;amp; HRIS." style="text;strokeColor=none;fillColor=none;html=1;whiteSpace=wrap;verticalAlign=middle;align=left;spacingLeft=10;" parent="1" vertex="1">
          <mxGeometry x="860" y="340" width="320" height="120" as="geometry" />
        </mxCell>
        <mxCell id="cell-3-4" value="&lt;b&gt;Arsitektur Antarmuka Manusia (UI/UX)&lt;/b&gt; yang merancang &lt;i&gt;Dashboard Dosen, Tampilan Course Mahasiswa, dan Portal Administrator&lt;/i&gt;." style="text;strokeColor=none;fillColor=none;html=1;whiteSpace=wrap;verticalAlign=middle;align=left;spacingLeft=10;" parent="1" vertex="1">
          <mxGeometry x="1180" y="340" width="320" height="120" as="geometry" />
        </mxCell>
        <mxCell id="cell-3-5" value="&lt;b&gt;Struktur Proses&lt;/b&gt; yang mendefinisikan pemicu (&lt;i&gt;trigger&lt;/i&gt;) dan kejadian (&lt;i&gt;event&lt;/i&gt;), misalnya notifikasi otomatis saat tugas baru diunggah." style="text;strokeColor=none;fillColor=none;html=1;whiteSpace=wrap;verticalAlign=middle;align=left;spacingLeft=10;" parent="1" vertex="1">
          <mxGeometry x="1500" y="340" width="320" height="120" as="geometry" />
        </mxCell>
        <mxCell id="cell-3-6" value="&lt;b&gt;Model Aturan Bisnis&lt;/b&gt; yang berisi aturan-aturan spesifik, contohnya &amp;quot;Seorang mahasiswa hanya bisa mengumpulkan tugas satu kali.&amp;quot;" style="text;strokeColor=none;fillColor=none;html=1;whiteSpace=wrap;verticalAlign=middle;align=left;spacingLeft=10;" parent="1" vertex="1">
          <mxGeometry x="1820" y="340" width="320" height="120" as="geometry" />
        </mxCell>
        <mxCell id="row-header-4" value="&lt;b&gt;Builder&lt;/b&gt;&lt;br&gt;(Model Teknologi Fisikal)" style="text;strokeColor=none;fillColor=#e1d5e7;html=1;whiteSpace=wrap;verticalAlign=middle;align=center;" parent="1" vertex="1">
          <mxGeometry x="40" y="460" width="180" height="120" as="geometry" />
        </mxCell>
        <mxCell id="cell-4-1" value="&lt;b&gt;Model Data Fisikal&lt;/b&gt; yang mendefinisikan tipe data dan batasan kolom, seperti &lt;i&gt;UserID (INT, PRIMARY KEY), Name (VARCHAR(255))&lt;/i&gt;. Menggunakan database &lt;b&gt;MySQL/PostgreSQL&lt;/b&gt;." style="text;strokeColor=none;fillColor=#f5f5f5;html=1;whiteSpace=wrap;verticalAlign=middle;align=left;spacingLeft=10;" parent="1" vertex="1">
          <mxGeometry x="220" y="460" width="320" height="120" as="geometry" />
        </mxCell>
        <mxCell id="cell-4-2" value="&lt;b&gt;Desain Sistem&lt;/b&gt; yang menentukan &lt;i&gt;framework&lt;/i&gt; (misalnya &lt;b&gt;Laravel/React&lt;/b&gt;) dan bahasa pemrograman (&lt;b&gt;PHP/JavaScript&lt;/b&gt;) yang akan digunakan." style="text;strokeColor=none;fillColor=#f5f5f5;html=1;whiteSpace=wrap;verticalAlign=middle;align=left;spacingLeft=10;" parent="1" vertex="1">
          <mxGeometry x="540" y="460" width="320" height="120" as="geometry" />
        </mxCell>
        <mxCell id="cell-4-3" value="&lt;b&gt;Arsitektur Teknologi&lt;/b&gt; yang menentukan spesifikasi server (&lt;i&gt;Cloud VM di data center domestik&lt;/i&gt;), &lt;i&gt;load balancer&lt;/i&gt;, dan konfigurasi &lt;i&gt;firewall&lt;/i&gt;." style="text;strokeColor=none;fillColor=#f5f5f5;html=1;whiteSpace=wrap;verticalAlign=middle;align=left;spacingLeft=10;" parent="1" vertex="1">
          <mxGeometry x="860" y="460" width="320" height="120" as="geometry" />
        </mxCell>
        <mxCell id="cell-4-4" value="&lt;b&gt;Arsitektur Presentasi&lt;/b&gt; yang mengimplementasikan keamanan seperti &lt;b&gt;SSO dengan ITB Account&lt;/b&gt; dan &lt;b&gt;Role-Based Access Control (RBAC)&lt;/b&gt;." style="text;strokeColor=none;fillColor=#f5f5f5;html=1;whiteSpace=wrap;verticalAlign=middle;align=left;spacingLeft=10;" parent="1" vertex="1">
          <mxGeometry x="1180" y="460" width="320" height="120" as="geometry" />
        </mxCell>
        <mxCell id="cell-4-5" value="&lt;b&gt;Struktur Kontrol&lt;/b&gt; yang menggunakan penjadwal seperti &lt;b&gt;Cron Job&lt;/b&gt; untuk sinkronisasi data harian dan sistem antrian (&lt;i&gt;queue&lt;/i&gt;) untuk pengiriman notifikasi." style="text;strokeColor=none;fillColor=#f5f5f5;html=1;whiteSpace=wrap;verticalAlign=middle;align=left;spacingLeft=10;" parent="1" vertex="1">
          <mxGeometry x="1500" y="460" width="320" height="120" as="geometry" />
        </mxCell>
        <mxCell id="cell-4-6" value="&lt;b&gt;Desain Aturan&lt;/b&gt; yang diimplementasikan dalam kode, misalnya &lt;code&gt;IF submission_count &amp;gt; 0 THEN block_submission()&lt;/code&gt;." style="text;strokeColor=none;fillColor=#f5f5f5;html=1;whiteSpace=wrap;verticalAlign=middle;align=left;spacingLeft=10;" parent="1" vertex="1">
          <mxGeometry x="1820" y="460" width="320" height="120" as="geometry" />
        </mxCell>
        <mxCell id="row-header-5" value="&lt;b&gt;Implementer&lt;/b&gt;&lt;br&gt;(Representasi Detail)" style="text;strokeColor=none;fillColor=#e1d5e7;html=1;whiteSpace=wrap;verticalAlign=middle;align=center;" parent="1" vertex="1">
          <mxGeometry x="40" y="580" width="180" height="120" as="geometry" />
        </mxCell>
        <mxCell id="cell-5-1" value="&lt;b&gt;Definisi Data (DDL)&lt;/b&gt; berupa kode SQL untuk membuat tabel: &lt;code&gt;CREATE TABLE Users (...)&lt;/code&gt;." style="text;strokeColor=none;fillColor=none;html=1;whiteSpace=wrap;verticalAlign=middle;align=left;spacingLeft=10;" parent="1" vertex="1">
          <mxGeometry x="220" y="580" width="320" height="120" as="geometry" />
        </mxCell>
        <mxCell id="cell-5-2" value="&lt;b&gt;Kode Program&lt;/b&gt; dalam file seperti &lt;code&gt;CourseController.php&lt;/code&gt; yang berisi fungsi &lt;code&gt;uploadAssignment()&lt;/code&gt;." style="text;strokeColor=none;fillColor=none;html=1;whiteSpace=wrap;verticalAlign=middle;align=left;spacingLeft=10;" parent="1" vertex="1">
          <mxGeometry x="540" y="580" width="320" height="120" as="geometry" />
        </mxCell>
        <mxCell id="cell-5-3" value="&lt;b&gt;Konfigurasi Jaringan&lt;/b&gt; seperti file &lt;code&gt;nginx.conf&lt;/code&gt; atau alamat IP dan &lt;i&gt;subnet mask&lt;/i&gt; server." style="text;strokeColor=none;fillColor=none;html=1;whiteSpace=wrap;verticalAlign=middle;align=left;spacingLeft=10;" parent="1" vertex="1">
          <mxGeometry x="860" y="580" width="320" height="120" as="geometry" />
        </mxCell>
        <mxCell id="cell-5-4" value="&lt;b&gt;Implementasi Keamanan&lt;/b&gt; berupa kode untuk otentikasi dan otorisasi, serta tabel &lt;code&gt;roles&lt;/code&gt; dan &lt;code&gt;permissions&lt;/code&gt; di database." style="text;strokeColor=none;fillColor=none;html=1;whiteSpace=wrap;verticalAlign=middle;align=left;spacingLeft=10;" parent="1" vertex="1">
          <mxGeometry x="1180" y="580" width="320" height="120" as="geometry" />
        </mxCell>
        <mxCell id="cell-5-5" value="&lt;b&gt;Definisi Waktu&lt;/b&gt; berupa perintah cron job spesifik: &lt;code&gt;0 2 * * * /path/to/sync_script.sh&lt;/code&gt;." style="text;strokeColor=none;fillColor=none;html=1;whiteSpace=wrap;verticalAlign=middle;align=left;spacingLeft=10;" parent="1" vertex="1">
          <mxGeometry x="1500" y="580" width="320" height="120" as="geometry" />
        </mxCell>
        <mxCell id="cell-5-6" value="&lt;b&gt;Spesifikasi Aturan&lt;/b&gt; dalam kode validasi aplikasi: &lt;code&gt;validate([&#39;grade&#39; =&amp;gt; &#39;required|numeric|min:0|max:100&#39;])&lt;/code&gt;." style="text;strokeColor=none;fillColor=none;html=1;whiteSpace=wrap;verticalAlign=middle;align=left;spacingLeft=10;" parent="1" vertex="1">
          <mxGeometry x="1820" y="580" width="320" height="120" as="geometry" />
        </mxCell>
        <mxCell id="row-header-6" value="&lt;b&gt;User&lt;/b&gt;&lt;br&gt;(Perusahaan Fungsional)" style="text;strokeColor=none;fillColor=#e1d5e7;html=1;whiteSpace=wrap;verticalAlign=middle;align=center;" parent="1" vertex="1">
          <mxGeometry x="40" y="700" width="180" height="120" as="geometry" />
        </mxCell>
        <mxCell id="cell-6-1" value="&lt;b&gt;Data aktual&lt;/b&gt; yang ada di dalam sistem Edunex saat sedang digunakan, seperti nama mahasiswa, materi kuliah, dan nilai tugas." style="text;strokeColor=none;fillColor=#f5f5f5;html=1;whiteSpace=wrap;verticalAlign=middle;align=left;spacingLeft=10;" parent="1" vertex="1">
          <mxGeometry x="220" y="700" width="320" height="120" as="geometry" />
        </mxCell>
        <mxCell id="cell-6-2" value="&lt;b&gt;Fungsi sistem&lt;/b&gt; yang sedang berjalan dan digunakan oleh pengguna, seperti fitur &lt;i&gt;upload&lt;/i&gt; file atau &lt;i&gt;submit&lt;/i&gt; kuis." style="text;strokeColor=none;fillColor=#f5f5f5;html=1;whiteSpace=wrap;verticalAlign=middle;align=left;spacingLeft=10;" parent="1" vertex="1">
          <mxGeometry x="540" y="700" width="320" height="120" as="geometry" />
        </mxCell>
        <mxCell id="cell-6-3" value="&lt;b&gt;Platform Edunex&lt;/b&gt; yang dapat diakses oleh pengguna melalui jaringan internet ITB atau publik." style="text;strokeColor=none;fillColor=#f5f5f5;html=1;whiteSpace=wrap;verticalAlign=middle;align=left;spacingLeft=10;" parent="1" vertex="1">
          <mxGeometry x="860" y="700" width="320" height="120" as="geometry" />
        </mxCell>
        <mxCell id="cell-6-4" value="&lt;b&gt;Dosen, Mahasiswa, dan Admin&lt;/b&gt; yang sedang login dan berinteraksi dengan sistem Edunex." style="text;strokeColor=none;fillColor=#f5f5f5;html=1;whiteSpace=wrap;verticalAlign=middle;align=left;spacingLeft=10;" parent="1" vertex="1">
          <mxGeometry x="1180" y="700" width="320" height="120" as="geometry" />
        </mxCell>
        <mxCell id="cell-6-5" value="&lt;b&gt;Sistem Edunex&lt;/b&gt; yang beroperasi secara &lt;i&gt;real-time&lt;/i&gt; sesuai dengan jadwal akademik yang berlaku." style="text;strokeColor=none;fillColor=#f5f5f5;html=1;whiteSpace=wrap;verticalAlign=middle;align=left;spacingLeft=10;" parent="1" vertex="1">
          <mxGeometry x="1500" y="700" width="320" height="120" as="geometry" />
        </mxCell>
        <mxCell id="cell-6-6" value="&lt;b&gt;Tujuan dan strategi&lt;/b&gt; yang sedang dijalankan melalui operasional harian sistem Edunex." style="text;strokeColor=none;fillColor=#f5f5f5;html=1;whiteSpace=wrap;verticalAlign=middle;align=left;spacingLeft=10;" parent="1" vertex="1">
          <mxGeometry x="1820" y="700" width="320" height="120" as="geometry" />
        </mxCell>
      </root>
    </mxGraphModel>
  </diagram>
  <diagram id="hPZMDfnMxpgy5jyrgoOz" name="Page-4">
    <mxGraphModel dx="1132" dy="733" grid="1" gridSize="10" guides="1" tooltips="1" connect="1" arrows="1" fold="1" page="1" pageScale="1" pageWidth="1169" pageHeight="827" background="none" math="0" shadow="0">
      <root>
        <mxCell id="0" />
        <mxCell id="1" parent="0" />
        <mxCell id="penduduk" value="" style="rounded=0;whiteSpace=wrap;html=1;fillColor=#dae8fc;strokeColor=#6c8ebf;" parent="1" vertex="1">
          <mxGeometry x="80" y="120" width="180" height="320" as="geometry" />
        </mxCell>
        <mxCell id="penduduk-title" value="PENDUDUK" style="text;html=1;align=center;verticalAlign=middle;resizable=0;points=[];autosize=1;strokeColor=none;fillColor=none;fontStyle=1;fontSize=14;" parent="1" vertex="1">
          <mxGeometry x="125" y="130" width="90" height="30" as="geometry" />
        </mxCell>
        <mxCell id="penduduk-attr" value="NIK (PK)&lt;br&gt;nama&lt;br&gt;tanggal_lahir&lt;br&gt;jenis_kelamin&lt;br&gt;jalan&lt;br&gt;rt&lt;br&gt;rw&lt;br&gt;kelurahan&lt;br&gt;kecamatan&lt;br&gt;kabupaten_kota&lt;br&gt;provinsi&lt;br&gt;agama&lt;br&gt;status_pernikahan&lt;br&gt;pekerjaan&lt;br&gt;kewarganegaraan&lt;br&gt;golongan_darah" style="text;html=1;align=left;verticalAlign=top;resizable=0;points=[];autosize=1;strokeColor=none;fillColor=none;fontSize=11;" parent="1" vertex="1">
          <mxGeometry x="90" y="160" width="120" height="260" as="geometry" />
        </mxCell>
        <mxCell id="pengguna" value="" style="rounded=0;whiteSpace=wrap;html=1;fillColor=#e1d5e7;strokeColor=#9673a6;" parent="1" vertex="1">
          <mxGeometry x="320" y="120" width="160" height="180" as="geometry" />
        </mxCell>
        <mxCell id="pengguna-title" value="PENGGUNA" style="text;html=1;align=center;verticalAlign=middle;resizable=0;points=[];autosize=1;strokeColor=none;fillColor=none;fontStyle=1;fontSize=14;" parent="1" vertex="1">
          <mxGeometry x="350" y="130" width="100" height="30" as="geometry" />
        </mxCell>
        <mxCell id="pengguna-attr" value="email (PK)&lt;br&gt;password&lt;br&gt;nomor_telepon&lt;br&gt;NIK (FK)&lt;br&gt;role" style="text;html=1;align=left;verticalAlign=top;resizable=0;points=[];autosize=1;strokeColor=none;fillColor=none;fontSize=11;" parent="1" vertex="1">
          <mxGeometry x="330" y="160" width="110" height="80" as="geometry" />
        </mxCell>
        <mxCell id="petugas" value="" style="rounded=0;whiteSpace=wrap;html=1;fillColor=#fff2cc;strokeColor=#d6b656;" parent="1" vertex="1">
          <mxGeometry x="520" y="120" width="160" height="200" as="geometry" />
        </mxCell>
        <mxCell id="petugas-title" value="PETUGAS" style="text;html=1;align=center;verticalAlign=middle;resizable=0;points=[];autosize=1;strokeColor=none;fillColor=none;fontStyle=1;fontSize=14;" parent="1" vertex="1">
          <mxGeometry x="560" y="130" width="80" height="30" as="geometry" />
        </mxCell>
        <mxCell id="petugas-attr" value="id_petugas (PK)&lt;br&gt;nama&lt;br&gt;email&lt;br&gt;password&lt;br&gt;nomor_telepon&lt;br&gt;jabatan&lt;br&gt;instansi" style="text;html=1;align=left;verticalAlign=top;resizable=0;points=[];autosize=1;strokeColor=none;fillColor=none;fontSize=11;" parent="1" vertex="1">
          <mxGeometry x="530" y="160" width="120" height="110" as="geometry" />
        </mxCell>
        <mxCell id="kategori" value="" style="rounded=0;whiteSpace=wrap;html=1;fillColor=#f8cecc;strokeColor=#b85450;" parent="1" vertex="1">
          <mxGeometry x="80" y="480" width="180" height="140" as="geometry" />
        </mxCell>
        <mxCell id="kategori-title" value="KATEGORI_LAYANAN" style="text;html=1;align=center;verticalAlign=middle;resizable=0;points=[];autosize=1;strokeColor=none;fillColor=none;fontStyle=1;fontSize=14;" parent="1" vertex="1">
          <mxGeometry x="90" y="490" width="160" height="30" as="geometry" />
        </mxCell>
        <mxCell id="kategori-attr" value="id_kategori (PK)&lt;br&gt;nama_kategori&lt;br&gt;deskripsi_kategori" style="text;html=1;align=left;verticalAlign=top;resizable=0;points=[];autosize=1;strokeColor=none;fillColor=none;fontSize=11;" parent="1" vertex="1">
          <mxGeometry x="90" y="520" width="140" height="60" as="geometry" />
        </mxCell>
        <mxCell id="layanan" value="" style="rounded=0;whiteSpace=wrap;html=1;fillColor=#d5e8d4;strokeColor=#82b366;" parent="1" vertex="1">
          <mxGeometry x="320" y="480" width="160" height="180" as="geometry" />
        </mxCell>
        <mxCell id="layanan-title" value="LAYANAN" style="text;html=1;align=center;verticalAlign=middle;resizable=0;points=[];autosize=1;strokeColor=none;fillColor=none;fontStyle=1;fontSize=14;" parent="1" vertex="1">
          <mxGeometry x="360" y="490" width="80" height="30" as="geometry" />
        </mxCell>
        <mxCell id="layanan-attr" value="id_layanan (PK)&lt;br&gt;nama_layanan&lt;br&gt;deskripsi_layanan&lt;br&gt;id_kategori (FK)" style="text;html=1;align=left;verticalAlign=top;resizable=0;points=[];autosize=1;strokeColor=none;fillColor=none;fontSize=11;" parent="1" vertex="1">
          <mxGeometry x="330" y="520" width="130" height="70" as="geometry" />
        </mxCell>
        <mxCell id="permintaan" value="" style="rounded=0;whiteSpace=wrap;html=1;fillColor=#ffe6cc;strokeColor=#d79b00;" parent="1" vertex="1">
          <mxGeometry x="520" y="480" width="200" height="220" as="geometry" />
        </mxCell>
        <mxCell id="permintaan-title" value="PERMINTAAN_LAYANAN" style="text;html=1;align=center;verticalAlign=middle;resizable=0;points=[];autosize=1;strokeColor=none;fillColor=none;fontStyle=1;fontSize=14;" parent="1" vertex="1">
          <mxGeometry x="535" y="490" width="170" height="30" as="geometry" />
        </mxCell>
        <mxCell id="permintaan-attr" value="id_permintaan (PK)&lt;br&gt;NIK (FK)&lt;br&gt;id_layanan (FK)&lt;br&gt;tanggal_permintaan&lt;br&gt;url_file_pendukung&lt;br&gt;deskripsi&lt;br&gt;id_petugas (FK)&lt;br&gt;status" style="text;html=1;align=left;verticalAlign=top;resizable=0;points=[];autosize=1;strokeColor=none;fillColor=none;fontSize=11;" parent="1" vertex="1">
          <mxGeometry x="530" y="520" width="150" height="130" as="geometry" />
        </mxCell>
        <mxCell id="rel1" value="" style="shape=rhombus;perimeter=rhombusPerimeter;whiteSpace=wrap;html=1;align=center;fillColor=#f5f5f5;strokeColor=#666666;" parent="1" vertex="1">
          <mxGeometry x="260" y="190" width="60" height="40" as="geometry" />
        </mxCell>
        <mxCell id="rel1-label" value="memiliki" style="text;html=1;align=center;verticalAlign=middle;resizable=0;points=[];autosize=1;strokeColor=none;fillColor=none;fontSize=10;" parent="1" vertex="1">
          <mxGeometry x="265" y="200" width="50" height="20" as="geometry" />
        </mxCell>
        <mxCell id="edge1" value="" style="endArrow=none;html=1;rounded=0;" parent="1" source="penduduk" target="rel1" edge="1">
          <mxGeometry relative="1" as="geometry" />
        </mxCell>
        <mxCell id="edge2" value="" style="endArrow=none;html=1;rounded=0;" parent="1" source="rel1" target="pengguna" edge="1">
          <mxGeometry relative="1" as="geometry" />
        </mxCell>
        <mxCell id="rel2" value="" style="shape=rhombus;perimeter=rhombusPerimeter;whiteSpace=wrap;html=1;align=center;fillColor=#f5f5f5;strokeColor=#666666;" parent="1" vertex="1">
          <mxGeometry x="300" y="360" width="80" height="50" as="geometry" />
        </mxCell>
        <mxCell id="rel2-label" value="mengajukan" style="text;html=1;align=center;verticalAlign=middle;resizable=0;points=[];autosize=1;strokeColor=none;fillColor=none;fontSize=10;" parent="1" vertex="1">
          <mxGeometry x="305" y="375" width="70" height="20" as="geometry" />
        </mxCell>
        <mxCell id="edge3" value="" style="endArrow=none;html=1;rounded=0;" parent="1" source="penduduk" target="rel2" edge="1">
          <mxGeometry relative="1" as="geometry" />
        </mxCell>
        <mxCell id="edge4" value="" style="endArrow=none;html=1;rounded=0;" parent="1" source="rel2" target="permintaan" edge="1">
          <mxGeometry relative="1" as="geometry" />
        </mxCell>
        <mxCell id="rel3" value="" style="shape=rhombus;perimeter=rhombusPerimeter;whiteSpace=wrap;html=1;align=center;fillColor=#f5f5f5;strokeColor=#666666;" parent="1" vertex="1">
          <mxGeometry x="480" y="550" width="40" height="40" as="geometry" />
        </mxCell>
        <mxCell id="rel3-label" value="untuk" style="text;html=1;align=center;verticalAlign=middle;resizable=0;points=[];autosize=1;strokeColor=none;fillColor=none;fontSize=10;" parent="1" vertex="1">
          <mxGeometry x="485" y="560" width="30" height="20" as="geometry" />
        </mxCell>
        <mxCell id="edge5" value="" style="endArrow=none;html=1;rounded=0;" parent="1" source="layanan" target="rel3" edge="1">
          <mxGeometry relative="1" as="geometry" />
        </mxCell>
        <mxCell id="edge6" value="" style="endArrow=none;html=1;rounded=0;" parent="1" source="rel3" target="permintaan" edge="1">
          <mxGeometry relative="1" as="geometry" />
        </mxCell>
        <mxCell id="rel4" value="" style="shape=rhombus;perimeter=rhombusPerimeter;whiteSpace=wrap;html=1;align=center;fillColor=#f5f5f5;strokeColor=#666666;" parent="1" vertex="1">
          <mxGeometry x="260" y="530" width="60" height="40" as="geometry" />
        </mxCell>
        <mxCell id="rel4-label" value="memiliki" style="text;html=1;align=center;verticalAlign=middle;resizable=0;points=[];autosize=1;strokeColor=none;fillColor=none;fontSize=10;" parent="1" vertex="1">
          <mxGeometry x="265" y="540" width="50" height="20" as="geometry" />
        </mxCell>
        <mxCell id="edge7" value="" style="endArrow=none;html=1;rounded=0;" parent="1" source="kategori" target="rel4" edge="1">
          <mxGeometry relative="1" as="geometry" />
        </mxCell>
        <mxCell id="edge8" value="" style="endArrow=none;html=1;rounded=0;" parent="1" source="rel4" target="layanan" edge="1">
          <mxGeometry relative="1" as="geometry" />
        </mxCell>
        <mxCell id="rel5" value="" style="shape=rhombus;perimeter=rhombusPerimeter;whiteSpace=wrap;html=1;align=center;fillColor=#f5f5f5;strokeColor=#666666;" parent="1" vertex="1">
          <mxGeometry x="580" y="320" width="80" height="50" as="geometry" />
        </mxCell>
        <mxCell id="rel5-label" value="menangani" style="text;html=1;align=center;verticalAlign=middle;resizable=0;points=[];autosize=1;strokeColor=none;fillColor=none;fontSize=10;" parent="1" vertex="1">
          <mxGeometry x="590" y="335" width="60" height="20" as="geometry" />
        </mxCell>
        <mxCell id="edge9" value="" style="endArrow=none;html=1;rounded=0;" parent="1" source="petugas" target="rel5" edge="1">
          <mxGeometry relative="1" as="geometry" />
        </mxCell>
        <mxCell id="edge10" value="" style="endArrow=none;html=1;rounded=0;" parent="1" source="rel5" target="permintaan" edge="1">
          <mxGeometry relative="1" as="geometry" />
        </mxCell>
        <mxCell id="card1-1" value="1" style="text;html=1;align=center;verticalAlign=middle;resizable=0;points=[];autosize=1;strokeColor=none;fillColor=none;fontSize=12;fontStyle=1;" parent="1" vertex="1">
          <mxGeometry x="250" y="200" width="20" height="20" as="geometry" />
        </mxCell>
        <mxCell id="card1-2" value="1" style="text;html=1;align=center;verticalAlign=middle;resizable=0;points=[];autosize=1;strokeColor=none;fillColor=none;fontSize=12;fontStyle=1;" parent="1" vertex="1">
          <mxGeometry x="310" y="200" width="20" height="20" as="geometry" />
        </mxCell>
        <mxCell id="card2-1" value="1" style="text;html=1;align=center;verticalAlign=middle;resizable=0;points=[];autosize=1;strokeColor=none;fillColor=none;fontSize=12;fontStyle=1;" parent="1" vertex="1">
          <mxGeometry x="200" y="380" width="20" height="20" as="geometry" />
        </mxCell>
        <mxCell id="card2-2" value="N" style="text;html=1;align=center;verticalAlign=middle;resizable=0;points=[];autosize=1;strokeColor=none;fillColor=none;fontSize=12;fontStyle=1;" parent="1" vertex="1">
          <mxGeometry x="500" y="460" width="20" height="20" as="geometry" />
        </mxCell>
        <mxCell id="card3-1" value="1" style="text;html=1;align=center;verticalAlign=middle;resizable=0;points=[];autosize=1;strokeColor=none;fillColor=none;fontSize=12;fontStyle=1;" parent="1" vertex="1">
          <mxGeometry x="460" y="560" width="20" height="20" as="geometry" />
        </mxCell>
        <mxCell id="card3-2" value="N" style="text;html=1;align=center;verticalAlign=middle;resizable=0;points=[];autosize=1;strokeColor=none;fillColor=none;fontSize=12;fontStyle=1;" parent="1" vertex="1">
          <mxGeometry x="500" y="560" width="20" height="20" as="geometry" />
        </mxCell>
        <mxCell id="card4-1" value="1" style="text;html=1;align=center;verticalAlign=middle;resizable=0;points=[];autosize=1;strokeColor=none;fillColor=none;fontSize=12;fontStyle=1;" parent="1" vertex="1">
          <mxGeometry x="250" y="540" width="20" height="20" as="geometry" />
        </mxCell>
        <mxCell id="card4-2" value="N" style="text;html=1;align=center;verticalAlign=middle;resizable=0;points=[];autosize=1;strokeColor=none;fillColor=none;fontSize=12;fontStyle=1;" parent="1" vertex="1">
          <mxGeometry x="300" y="540" width="20" height="20" as="geometry" />
        </mxCell>
        <mxCell id="card5-1" value="1" style="text;html=1;align=center;verticalAlign=middle;resizable=0;points=[];autosize=1;strokeColor=none;fillColor=none;fontSize=12;fontStyle=1;" parent="1" vertex="1">
          <mxGeometry x="600" y="300" width="20" height="20" as="geometry" />
        </mxCell>
        <mxCell id="card5-2" value="N" style="text;html=1;align=center;verticalAlign=middle;resizable=0;points=[];autosize=1;strokeColor=none;fillColor=none;fontSize=12;fontStyle=1;" parent="1" vertex="1">
          <mxGeometry x="600" y="460" width="20" height="20" as="geometry" />
        </mxCell>
      </root>
    </mxGraphModel>
  </diagram>
  <diagram id="HP69iDj2EzPVfY34nQU5" name="Page-5">
    <mxGraphModel dx="1887" dy="2322" grid="1" gridSize="10" guides="1" tooltips="1" connect="1" arrows="1" fold="1" page="1" pageScale="1" pageWidth="1600" pageHeight="1100" math="0" shadow="0">
      <root>
        <mxCell id="0" />
        <mxCell id="1" parent="0" />
        <mxCell id="entity-penduduk" value="PENDUDUK" style="swimlane;fontStyle=1;align=center;verticalAlign=top;childLayout=stackLayout;horizontal=1;startSize=30;horizontalStack=0;resizeParent=1;resizeParentMax=0;resizeLast=0;collapsible=0;marginBottom=0;whiteSpace=wrap;html=1;fontFamily=Helvetica;" parent="1" vertex="1">
          <mxGeometry x="160" y="40" width="240" height="330" as="geometry" />
        </mxCell>
        <mxCell id="attr-penduduk" value="&lt;table style=&quot;width:100%;font-size:12px;border-collapse: collapse;&quot;&gt;&lt;tr&gt;&lt;td style=&quot;width:40px; text-align:left; font-style:italic;&quot;&gt;PK&lt;/td&gt;&lt;td style=&quot;width:120px; text-align:left;&quot;&gt;NIK&lt;/td&gt;&lt;td style=&quot;text-align:right; font-style:italic;&quot;&gt;varchar(16)&lt;/td&gt;&lt;/tr&gt;&lt;tr&gt;&lt;td colspan=&quot;3&quot;&gt;&lt;hr&gt;&lt;/td&gt;&lt;/tr&gt;&lt;tr&gt;&lt;td&gt;&lt;/td&gt;&lt;td&gt;nama&lt;/td&gt;&lt;td style=&quot;text-align:right; font-style:italic;&quot;&gt;varchar(255)&lt;/td&gt;&lt;/tr&gt;&lt;tr&gt;&lt;td&gt;&lt;/td&gt;&lt;td&gt;tanggal_lahir&lt;/td&gt;&lt;td style=&quot;text-align:right; font-style:italic;&quot;&gt;date&lt;/td&gt;&lt;/tr&gt;&lt;tr&gt;&lt;td&gt;&lt;/td&gt;&lt;td&gt;jenis_kelamin&lt;/td&gt;&lt;td style=&quot;text-align:right; font-style:italic;&quot;&gt;varchar(20)&lt;/td&gt;&lt;/tr&gt;&lt;tr&gt;&lt;td&gt;&lt;/td&gt;&lt;td&gt;jalan&lt;/td&gt;&lt;td style=&quot;text-align:right; font-style:italic;&quot;&gt;varchar(255)&lt;/td&gt;&lt;/tr&gt;&lt;tr&gt;&lt;td&gt;&lt;/td&gt;&lt;td&gt;rt&lt;/td&gt;&lt;td style=&quot;text-align:right; font-style:italic;&quot;&gt;varchar(3)&lt;/td&gt;&lt;/tr&gt;&lt;tr&gt;&lt;td&gt;&lt;/td&gt;&lt;td&gt;rw&lt;/td&gt;&lt;td style=&quot;text-align:right; font-style:italic;&quot;&gt;varchar(3)&lt;/td&gt;&lt;/tr&gt;&lt;tr&gt;&lt;td&gt;&lt;/td&gt;&lt;td&gt;kelurahan&lt;/td&gt;&lt;td style=&quot;text-align:right; font-style:italic;&quot;&gt;varchar(100)&lt;/td&gt;&lt;/tr&gt;&lt;tr&gt;&lt;td&gt;&lt;/td&gt;&lt;td&gt;kecamatan&lt;/td&gt;&lt;td style=&quot;text-align:right; font-style:italic;&quot;&gt;varchar(100)&lt;/td&gt;&lt;/tr&gt;&lt;tr&gt;&lt;td&gt;&lt;/td&gt;&lt;td&gt;kabupaten_kota&lt;/td&gt;&lt;td style=&quot;text-align:right; font-style:italic;&quot;&gt;varchar(100)&lt;/td&gt;&lt;/tr&gt;&lt;tr&gt;&lt;td&gt;&lt;/td&gt;&lt;td&gt;provinsi&lt;/td&gt;&lt;td style=&quot;text-align:right; font-style:italic;&quot;&gt;varchar(100)&lt;/td&gt;&lt;/tr&gt;&lt;tr&gt;&lt;td&gt;&lt;/td&gt;&lt;td&gt;agama&lt;/td&gt;&lt;td style=&quot;text-align:right; font-style:italic;&quot;&gt;varchar(50)&lt;/td&gt;&lt;/tr&gt;&lt;tr&gt;&lt;td&gt;&lt;/td&gt;&lt;td&gt;status_pernikahan&lt;/td&gt;&lt;td style=&quot;text-align:right; font-style:italic;&quot;&gt;varchar(50)&lt;/td&gt;&lt;/tr&gt;&lt;tr&gt;&lt;td&gt;&lt;/td&gt;&lt;td&gt;pekerjaan&lt;/td&gt;&lt;td style=&quot;text-align:right; font-style:italic;&quot;&gt;varchar(100)&lt;/td&gt;&lt;/tr&gt;&lt;tr&gt;&lt;td&gt;&lt;/td&gt;&lt;td&gt;kewarganegaraan&lt;/td&gt;&lt;td style=&quot;text-align:right; font-style:italic;&quot;&gt;varchar(50)&lt;/td&gt;&lt;/tr&gt;&lt;tr&gt;&lt;td&gt;&lt;/td&gt;&lt;td&gt;golongan_darah&lt;/td&gt;&lt;td style=&quot;text-align:right; font-style:italic;&quot;&gt;varchar(2)&lt;/td&gt;&lt;/tr&gt;&lt;/table&gt;" style="text;strokeColor=none;fillColor=none;align=left;verticalAlign=top;spacingLeft=4;spacingRight=4;overflow=hidden;rotatable=0;points=[[0,0.5],[1,0.5]];portConstraint=eastwest;whiteSpace=wrap;html=1;fontFamily=Helvetica;" parent="entity-penduduk" vertex="1">
          <mxGeometry y="30" width="240" height="300" as="geometry" />
        </mxCell>
        <mxCell id="entity-pengguna" value="PENGGUNA" style="swimlane;fontStyle=1;align=center;verticalAlign=top;childLayout=stackLayout;horizontal=1;startSize=30;horizontalStack=0;resizeParent=1;resizeParentMax=0;resizeLast=0;collapsible=0;marginBottom=0;whiteSpace=wrap;html=1;fontFamily=Helvetica;" parent="1" vertex="1">
          <mxGeometry x="460" y="150" width="250" height="110" as="geometry" />
        </mxCell>
        <mxCell id="attr-pengguna" value="&lt;table style=&quot;width:100%;font-size:12px;border-collapse: collapse;&quot;&gt;&lt;tr&gt;&lt;td style=&quot;width:40px; text-align:left; font-style:italic;&quot;&gt;PK&lt;/td&gt;&lt;td style=&quot;width:120px; text-align:left;&quot;&gt;email&lt;/td&gt;&lt;td style=&quot;text-align:right; font-style:italic;&quot;&gt;varchar(255)&lt;/td&gt;&lt;/tr&gt;&lt;tr&gt;&lt;td colspan=&quot;3&quot;&gt;&lt;hr&gt;&lt;/td&gt;&lt;/tr&gt;&lt;tr&gt;&lt;td&gt;&lt;/td&gt;&lt;td&gt;password&lt;/td&gt;&lt;td style=&quot;text-align:right; font-style:italic;&quot;&gt;varchar(255)&lt;/td&gt;&lt;/tr&gt;&lt;tr&gt;&lt;td style=&quot;font-style:italic;&quot;&gt;FK&lt;/td&gt;&lt;td&gt;NIK_penduduk&lt;/td&gt;&lt;td style=&quot;text-align:right; font-style:italic;&quot;&gt;varchar(16)&lt;/td&gt;&lt;/tr&gt;&lt;/table&gt;" style="text;strokeColor=none;fillColor=none;align=left;verticalAlign=top;spacingLeft=4;spacingRight=4;overflow=hidden;rotatable=0;points=[[0,0.5],[1,0.5]];portConstraint=eastwest;whiteSpace=wrap;html=1;fontFamily=Helvetica;" parent="entity-pengguna" vertex="1">
          <mxGeometry y="30" width="250" height="80" as="geometry" />
        </mxCell>
        <mxCell id="rel-penduduk-pengguna" value="" style="endArrow=ERzeroToOne;startArrow=ERone;html=1;rounded=0;exitX=1;exitY=0.5;exitDx=0;exitDy=0;entryX=0;entryY=0.5;entryDx=0;entryDy=0;edgeStyle=orthogonalEdgeStyle;" parent="1" source="attr-penduduk" target="attr-pengguna" edge="1">
          <mxGeometry width="50" height="50" relative="1" as="geometry">
            <mxPoint x="360" y="300" as="sourcePoint" />
            <mxPoint x="440" y="300" as="targetPoint" />
          </mxGeometry>
        </mxCell>
        <mxCell id="entity-petugas" value="PETUGAS" style="swimlane;fontStyle=1;align=center;verticalAlign=top;childLayout=stackLayout;horizontal=1;startSize=30;horizontalStack=0;resizeParent=1;resizeParentMax=0;resizeLast=0;collapsible=0;marginBottom=0;whiteSpace=wrap;html=1;fontFamily=Helvetica;" parent="1" vertex="1">
          <mxGeometry x="460" y="40" width="250" height="90" as="geometry" />
        </mxCell>
        <mxCell id="attr-petugas" value="&lt;table style=&quot;width:100%;font-size:12px;border-collapse: collapse;&quot;&gt;&lt;tr&gt;&lt;td style=&quot;width:40px; text-align:left; font-style:italic;&quot;&gt;PK, FK&lt;/td&gt;&lt;td style=&quot;width:120px; text-align:left;&quot;&gt;email_pengguna&lt;/td&gt;&lt;td style=&quot;text-align:right; font-style:italic;&quot;&gt;varchar(255)&lt;/td&gt;&lt;/tr&gt;&lt;tr&gt;&lt;td colspan=&quot;3&quot;&gt;&lt;hr&gt;&lt;/td&gt;&lt;/tr&gt;&lt;tr&gt;&lt;td&gt;&lt;/td&gt;&lt;td&gt;NIP&lt;/td&gt;&lt;td style=&quot;text-align:right; font-style:italic;&quot;&gt;varchar(50)&lt;/td&gt;&lt;/tr&gt;&lt;/table&gt;" style="text;strokeColor=none;fillColor=none;align=left;verticalAlign=top;spacingLeft=4;spacingRight=4;overflow=hidden;rotatable=0;points=[[0,0.5],[1,0.5]];portConstraint=eastwest;whiteSpace=wrap;html=1;fontFamily=Helvetica;" parent="entity-petugas" vertex="1">
          <mxGeometry y="30" width="250" height="60" as="geometry" />
        </mxCell>
        <mxCell id="rel-pengguna-petugas-isa" value="ISA" style="endArrow=block;endFill=0;html=1;rounded=0;exitX=0.5;exitY=0;exitDx=0;exitDy=0;entryX=0.5;entryY=1;entryDx=0;entryDy=0;dashed=1;" parent="1" source="entity-pengguna" target="entity-petugas" edge="1">
          <mxGeometry width="50" height="50" relative="1" as="geometry">
            <mxPoint x="610" y="220" as="sourcePoint" />
            <mxPoint x="610" as="targetPoint" />
          </mxGeometry>
        </mxCell>
        <mxCell id="entity-nomor-telepon" value="NOMOR_TELEPON_PENGGUNA" style="swimlane;fontStyle=1;align=center;verticalAlign=top;childLayout=stackLayout;horizontal=1;startSize=30;horizontalStack=0;resizeParent=1;resizeParentMax=0;resizeLast=0;collapsible=0;marginBottom=0;whiteSpace=wrap;html=1;fontFamily=Helvetica;" parent="1" vertex="1">
          <mxGeometry x="455" y="280" width="260" height="90" as="geometry" />
        </mxCell>
        <mxCell id="attr-nomor-telepon" value="&lt;table style=&quot;width:100%;font-size:12px;border-collapse: collapse;&quot;&gt;&lt;tr&gt;&lt;td style=&quot;width:40px; text-align:left; font-style:italic;&quot;&gt;PK, FK&lt;/td&gt;&lt;td style=&quot;width:120px; text-align:left;&quot;&gt;email_pengguna&lt;/td&gt;&lt;td style=&quot;text-align:right; font-style:italic;&quot;&gt;varchar(255)&lt;/td&gt;&lt;/tr&gt;&lt;tr&gt;&lt;td style=&quot;width:40px; text-align:left; font-style:italic;&quot;&gt;PK&lt;/td&gt;&lt;td&gt;nomor_telepon&lt;/td&gt;&lt;td style=&quot;text-align:right; font-style:italic;&quot;&gt;varchar(20)&lt;/td&gt;&lt;/tr&gt;&lt;/table&gt;" style="text;strokeColor=none;fillColor=none;align=left;verticalAlign=top;spacingLeft=4;spacingRight=4;overflow=hidden;rotatable=0;points=[[0,0.5],[1,0.5]];portConstraint=eastwest;whiteSpace=wrap;html=1;fontFamily=Helvetica;" parent="entity-nomor-telepon" vertex="1">
          <mxGeometry y="30" width="260" height="60" as="geometry" />
        </mxCell>
        <mxCell id="rel-pengguna-telepon" value="" style="endArrow=ERoneToMany;startArrow=ERone;html=1;rounded=0;exitX=0.5;exitY=1;exitDx=0;exitDy=0;entryX=0.5;entryY=0;entryDx=0;entryDy=0;" parent="1" source="entity-pengguna" target="entity-nomor-telepon" edge="1">
          <mxGeometry width="50" height="50" relative="1" as="geometry">
            <mxPoint x="610" y="370" as="sourcePoint" />
            <mxPoint x="610" y="430" as="targetPoint" />
          </mxGeometry>
        </mxCell>
        <mxCell id="entity-keahlian" value="KEAHLIAN_PETUGAS" style="swimlane;fontStyle=1;align=center;verticalAlign=top;childLayout=stackLayout;horizontal=1;startSize=30;horizontalStack=0;resizeParent=1;resizeParentMax=0;resizeLast=0;collapsible=0;marginBottom=0;whiteSpace=wrap;html=1;fontFamily=Helvetica;" parent="1" vertex="1">
          <mxGeometry x="455" y="-60" width="260" height="80" as="geometry" />
        </mxCell>
        <mxCell id="attr-keahlian" value="&lt;table style=&quot;width:100%;font-size:12px;border-collapse: collapse;&quot;&gt;&lt;tr&gt;&lt;td style=&quot;width:40px; text-align:left; font-style:italic;&quot;&gt;PK, FK&lt;/td&gt;&lt;td style=&quot;width:120px; text-align:left;&quot;&gt;email_petugas&lt;/td&gt;&lt;td style=&quot;text-align:right; font-style:italic;&quot;&gt;varchar(255)&lt;/td&gt;&lt;/tr&gt;&lt;tr&gt;&lt;td style=&quot;width:40px; text-align:left; font-style:italic;&quot;&gt;PK&lt;/td&gt;&lt;td&gt;keahlian&lt;/td&gt;&lt;td style=&quot;text-align:right; font-style:italic;&quot;&gt;varchar(100)&lt;/td&gt;&lt;/tr&gt;&lt;/table&gt;" style="text;strokeColor=none;fillColor=none;align=left;verticalAlign=top;spacingLeft=4;spacingRight=4;overflow=hidden;rotatable=0;points=[[0,0.5],[1,0.5]];portConstraint=eastwest;whiteSpace=wrap;html=1;fontFamily=Helvetica;" parent="entity-keahlian" vertex="1">
          <mxGeometry y="30" width="260" height="50" as="geometry" />
        </mxCell>
        <mxCell id="rel-petugas-keahlian" value="" style="endArrow=ERoneToMany;startArrow=ERone;html=1;rounded=0;exitX=0.5;exitY=0;exitDx=0;exitDy=0;entryX=0.5;entryY=1;entryDx=0;entryDy=0;" parent="1" source="entity-petugas" target="entity-keahlian" edge="1">
          <mxGeometry width="50" height="50" relative="1" as="geometry">
            <mxPoint x="610" as="sourcePoint" />
            <mxPoint x="610" y="-20" as="targetPoint" />
          </mxGeometry>
        </mxCell>
        <mxCell id="entity-permintaan" value="PERMINTAAN_LAYANAN" style="swimlane;fontStyle=1;align=center;verticalAlign=top;childLayout=stackLayout;horizontal=1;startSize=30;horizontalStack=0;resizeParent=1;resizeParentMax=0;resizeLast=0;collapsible=0;marginBottom=0;whiteSpace=wrap;html=1;fontFamily=Helvetica;" parent="1" vertex="1">
          <mxGeometry x="770" y="115" width="260" height="180" as="geometry" />
        </mxCell>
        <mxCell id="attr-permintaan" value="&lt;table style=&quot;width:100%;font-size:12px;border-collapse: collapse;&quot;&gt;&lt;tr&gt;&lt;td style=&quot;width:40px; text-align:left; font-style:italic;&quot;&gt;PK&lt;/td&gt;&lt;td style=&quot;width:120px; text-align:left;&quot;&gt;id_permintaan&lt;/td&gt;&lt;td style=&quot;text-align:right; font-style:italic;&quot;&gt;bigint&lt;/td&gt;&lt;/tr&gt;&lt;tr&gt;&lt;td colspan=&quot;3&quot;&gt;&lt;hr&gt;&lt;/td&gt;&lt;/tr&gt;&lt;tr&gt;&lt;td&gt;&lt;/td&gt;&lt;td&gt;tanggal_permintaan&lt;/td&gt;&lt;td style=&quot;text-align:right; font-style:italic;&quot;&gt;timestamp&lt;/td&gt;&lt;/tr&gt;&lt;tr&gt;&lt;td&gt;&lt;/td&gt;&lt;td&gt;url_penyimpanan_file&lt;/td&gt;&lt;td style=&quot;text-align:right; font-style:italic;&quot;&gt;varchar(2048)&lt;/td&gt;&lt;/tr&gt;&lt;tr&gt;&lt;td&gt;&lt;/td&gt;&lt;td&gt;deskripsi&lt;/td&gt;&lt;td style=&quot;text-align:right; font-style:italic;&quot;&gt;text&lt;/td&gt;&lt;/tr&gt;&lt;tr&gt;&lt;td style=&quot;font-style:italic;&quot;&gt;FK&lt;/td&gt;&lt;td&gt;email_pengguna&lt;/td&gt;&lt;td style=&quot;text-align:right; font-style:italic;&quot;&gt;varchar(255)&lt;/td&gt;&lt;/tr&gt;&lt;tr&gt;&lt;td style=&quot;font-style:italic;&quot;&gt;FK&lt;/td&gt;&lt;td&gt;id_layanan&lt;/td&gt;&lt;td style=&quot;text-align:right; font-style:italic;&quot;&gt;bigint&lt;/td&gt;&lt;/tr&gt;&lt;tr&gt;&lt;td style=&quot;font-style:italic;&quot;&gt;FK&lt;/td&gt;&lt;td&gt;email_petugas&lt;/td&gt;&lt;td style=&quot;text-align:right; font-style:italic;&quot;&gt;varchar(255)&lt;/td&gt;&lt;/tr&gt;&lt;/table&gt;" style="text;strokeColor=none;fillColor=none;align=left;verticalAlign=top;spacingLeft=4;spacingRight=4;overflow=hidden;rotatable=0;points=[[0,0.5],[1,0.5]];portConstraint=eastwest;whiteSpace=wrap;html=1;fontFamily=Helvetica;" parent="entity-permintaan" vertex="1">
          <mxGeometry y="30" width="260" height="150" as="geometry" />
        </mxCell>
        <mxCell id="rel-pengguna-permintaan" value="" style="endArrow=ERzeroToMany;startArrow=ERone;html=1;rounded=0;exitX=1;exitY=0.5;exitDx=0;exitDy=0;entryX=0;entryY=0.5;entryDx=0;entryDy=0;" parent="1" source="entity-pengguna" target="entity-permintaan" edge="1">
          <mxGeometry width="50" height="50" relative="1" as="geometry">
            <mxPoint x="780" y="300" as="sourcePoint" />
            <mxPoint x="860" y="300" as="targetPoint" />
          </mxGeometry>
        </mxCell>
        <mxCell id="rel-petugas-permintaan" value="" style="endArrow=ERzeroToMany;startArrow=ERone;html=1;rounded=0;exitX=1;exitY=0.5;exitDx=0;exitDy=0;entryX=0.003;entryY=0.232;entryDx=0;entryDy=0;entryPerimeter=0;edgeStyle=orthogonalEdgeStyle;" parent="1" source="attr-petugas" target="attr-permintaan" edge="1">
          <mxGeometry width="50" height="50" relative="1" as="geometry">
            <mxPoint x="780" y="90" as="sourcePoint" />
            <mxPoint x="860" y="212" as="targetPoint" />
          </mxGeometry>
        </mxCell>
        <mxCell id="entity-layanan" value="LAYANAN" style="swimlane;fontStyle=1;align=center;verticalAlign=top;childLayout=stackLayout;horizontal=1;startSize=30;horizontalStack=0;resizeParent=1;resizeParentMax=0;resizeLast=0;collapsible=0;marginBottom=0;whiteSpace=wrap;html=1;fontFamily=Helvetica;" parent="1" vertex="1">
          <mxGeometry x="1090" y="40" width="260" height="130" as="geometry" />
        </mxCell>
        <mxCell id="attr-layanan" value="&lt;table style=&quot;width:100%;font-size:12px;border-collapse: collapse;&quot;&gt;&lt;tr&gt;&lt;td style=&quot;width:40px; text-align:left; font-style:italic;&quot;&gt;PK&lt;/td&gt;&lt;td style=&quot;width:120px; text-align:left;&quot;&gt;id_layanan&lt;/td&gt;&lt;td style=&quot;text-align:right; font-style:italic;&quot;&gt;bigint&lt;/td&gt;&lt;/tr&gt;&lt;tr&gt;&lt;td colspan=&quot;3&quot;&gt;&lt;hr&gt;&lt;/td&gt;&lt;/tr&gt;&lt;tr&gt;&lt;td&gt;&lt;/td&gt;&lt;td&gt;nama_layanan&lt;/td&gt;&lt;td style=&quot;text-align:right; font-style:italic;&quot;&gt;varchar(255)&lt;/td&gt;&lt;/tr&gt;&lt;tr&gt;&lt;td&gt;&lt;/td&gt;&lt;td&gt;deskripsi_layanan&lt;/td&gt;&lt;td style=&quot;text-align:right; font-style:italic;&quot;&gt;text&lt;/td&gt;&lt;/tr&gt;&lt;tr&gt;&lt;td style=&quot;font-style:italic;&quot;&gt;FK&lt;/td&gt;&lt;td&gt;id_kategori&lt;/td&gt;&lt;td style=&quot;text-align:right; font-style:italic;&quot;&gt;bigint&lt;/td&gt;&lt;/tr&gt;&lt;/table&gt;" style="text;strokeColor=none;fillColor=none;align=left;verticalAlign=top;spacingLeft=4;spacingRight=4;overflow=hidden;rotatable=0;points=[[0,0.5],[1,0.5]];portConstraint=eastwest;whiteSpace=wrap;html=1;fontFamily=Helvetica;" parent="entity-layanan" vertex="1">
          <mxGeometry y="30" width="260" height="100" as="geometry" />
        </mxCell>
        <mxCell id="rel-permintaan-layanan" value="" style="endArrow=ERzeroToMany;startArrow=ERone;html=1;rounded=0;entryX=0;entryY=0.5;entryDx=0;entryDy=0;exitX=1;exitY=0.5;exitDx=0;exitDy=0;edgeStyle=orthogonalEdgeStyle;" parent="1" source="attr-permintaan" target="attr-layanan" edge="1">
          <mxGeometry width="50" height="50" relative="1" as="geometry">
            <mxPoint x="1200" y="320" as="sourcePoint" />
            <mxPoint x="1240" y="320" as="targetPoint" />
          </mxGeometry>
        </mxCell>
        <mxCell id="entity-kategori" value="KATEGORI_LAYANAN" style="swimlane;fontStyle=1;align=center;verticalAlign=top;childLayout=stackLayout;horizontal=1;startSize=30;horizontalStack=0;resizeParent=1;resizeParentMax=0;resizeLast=0;collapsible=0;marginBottom=0;whiteSpace=wrap;html=1;fontFamily=Helvetica;" parent="1" vertex="1">
          <mxGeometry x="1095" y="200" width="250" height="110" as="geometry" />
        </mxCell>
        <mxCell id="attr-kategori" value="&lt;table style=&quot;width:100%;font-size:12px;border-collapse: collapse;&quot;&gt;&lt;tr&gt;&lt;td style=&quot;width:40px; text-align:left; font-style:italic;&quot;&gt;PK&lt;/td&gt;&lt;td style=&quot;width:120px; text-align:left;&quot;&gt;id_kategori&lt;/td&gt;&lt;td style=&quot;text-align:right; font-style:italic;&quot;&gt;bigint&lt;/td&gt;&lt;/tr&gt;&lt;tr&gt;&lt;td colspan=&quot;3&quot;&gt;&lt;hr&gt;&lt;/td&gt;&lt;/tr&gt;&lt;tr&gt;&lt;td&gt;&lt;/td&gt;&lt;td&gt;nama_kategori&lt;/td&gt;&lt;td style=&quot;text-align:right; font-style:italic;&quot;&gt;varchar(255)&lt;/td&gt;&lt;/tr&gt;&lt;tr&gt;&lt;td&gt;&lt;/td&gt;&lt;td&gt;deskripsi_kategori&lt;/td&gt;&lt;td style=&quot;text-align:right; font-style:italic;&quot;&gt;text&lt;/td&gt;&lt;/tr&gt;&lt;/table&gt;" style="text;strokeColor=none;fillColor=none;align=left;verticalAlign=top;spacingLeft=4;spacingRight=4;overflow=hidden;rotatable=0;points=[[0,0.5],[1,0.5]];portConstraint=eastwest;whiteSpace=wrap;html=1;fontFamily=Helvetica;" parent="entity-kategori" vertex="1">
          <mxGeometry y="30" width="250" height="80" as="geometry" />
        </mxCell>
        <mxCell id="rel-kategori-layanan" value="" style="endArrow=ERoneToMany;startArrow=ERone;html=1;rounded=0;exitX=0.5;exitY=0;exitDx=0;exitDy=0;entryX=0.5;entryY=1;entryDx=0;entryDy=0;" parent="1" source="entity-kategori" target="entity-layanan" edge="1">
          <mxGeometry width="50" height="50" relative="1" as="geometry">
            <mxPoint x="1410" y="420" as="sourcePoint" />
            <mxPoint x="1410" y="380" as="targetPoint" />
          </mxGeometry>
        </mxCell>
      </root>
    </mxGraphModel>
  </diagram>
</mxfile>
